<svg width="143" height="24" viewBox="0 0 143 24" fill="none" xmlns="http://www.w3.org/2000/svg">
<path d="M11.12 0.6C12.8533 0.6 14.4 0.959999 15.76 1.68C17.1467 2.4 18.2267 3.46667 19 4.88C19.7733 6.29333 20.16 8 20.16 10V23H15.64V10.68C15.64 8.70667 15.1467 7.2 14.16 6.16C13.1733 5.09333 11.8267 4.56 10.12 4.56C8.41333 4.56 7.05333 5.09333 6.04 6.16C5.05333 7.2 4.56 8.70667 4.56 10.68V23H1.19209e-07V0.96H4.56V3.48C5.30667 2.57333 6.25333 1.86667 7.4 1.36C8.57333 0.853333 9.81333 0.6 11.12 0.6ZM45.9366 0.96V23H41.3766V20.4C40.6566 21.3067 39.7099 22.0267 38.5366 22.56C37.3899 23.0667 36.1632 23.32 34.8566 23.32C33.1232 23.32 31.5632 22.96 30.1766 22.24C28.8166 21.52 27.7366 20.4533 26.9366 19.04C26.1632 17.6267 25.7766 15.92 25.7766 13.92V0.96H30.2966V13.24C30.2966 15.2133 30.7899 16.7333 31.7766 17.8C32.7632 18.84 34.1099 19.36 35.8166 19.36C37.5232 19.36 38.8699 18.84 39.8566 17.8C40.8699 16.7333 41.3766 15.2133 41.3766 13.24V0.96H45.9366ZM60.4731 18.92L66.7131 0.96H71.5531L63.1531 23H57.7131L49.3531 0.96H54.2331L60.4731 18.92ZM84.56 23.36C82.48 23.36 80.6 22.8933 78.92 21.96C77.24 21 75.92 19.6667 74.96 17.96C74 16.2267 73.52 14.2267 73.52 11.96C73.52 9.72 74.0133 7.73333 75 6C75.9867 4.26667 77.3333 2.93333 79.04 2C80.7467 1.06667 82.6533 0.6 84.76 0.6C86.8667 0.6 88.7733 1.06667 90.48 2C92.1867 2.93333 93.5333 4.26667 94.52 6C95.5067 7.73333 96 9.72 96 11.96C96 14.2 95.4933 16.1867 94.48 17.92C93.4667 19.6533 92.08 21 90.32 21.96C88.5867 22.8933 86.6667 23.36 84.56 23.36ZM84.56 19.4C85.7333 19.4 86.8267 19.12 87.84 18.56C88.88 18 89.72 17.16 90.36 16.04C91 14.92 91.32 13.56 91.32 11.96C91.32 10.36 91.0133 9.01333 90.4 7.92C89.7867 6.8 88.9733 5.96 87.96 5.4C86.9467 4.84 85.8533 4.56 84.68 4.56C83.5067 4.56 82.4133 4.84 81.4 5.4C80.4133 5.96 79.6267 6.8 79.04 7.92C78.4533 9.01333 78.16 10.36 78.16 11.96C78.16 14.3333 78.76 16.1733 79.96 17.48C81.1867 18.76 82.72 19.4 84.56 19.4ZM108.508 23.36C106.774 23.36 105.214 23.0533 103.828 22.44C102.468 21.8 101.388 20.9467 100.588 19.88C99.7878 18.7867 99.3611 17.5733 99.3078 16.24H104.028C104.108 17.1733 104.548 17.96 105.348 18.6C106.174 19.2133 107.201 19.52 108.428 19.52C109.708 19.52 110.694 19.28 111.388 18.8C112.108 18.2933 112.468 17.6533 112.468 16.88C112.468 16.0533 112.068 15.44 111.268 15.04C110.494 14.64 109.254 14.2 107.548 13.72C105.894 13.2667 104.548 12.8267 103.508 12.4C102.468 11.9733 101.561 11.32 100.788 10.44C100.041 9.56 99.6678 8.4 99.6678 6.96C99.6678 5.78667 100.014 4.72 100.708 3.76C101.401 2.77333 102.388 2 103.668 1.44C104.974 0.879999 106.468 0.6 108.148 0.6C110.654 0.6 112.668 1.24 114.188 2.52C115.734 3.77333 116.561 5.49333 116.668 7.68H112.108C112.028 6.69333 111.628 5.90667 110.908 5.32C110.188 4.73333 109.214 4.44 107.988 4.44C106.788 4.44 105.868 4.66667 105.228 5.12C104.588 5.57333 104.268 6.17333 104.268 6.92C104.268 7.50667 104.481 8 104.908 8.4C105.334 8.8 105.854 9.12 106.468 9.36C107.081 9.57333 107.988 9.85333 109.188 10.2C110.788 10.6267 112.094 11.0667 113.108 11.52C114.148 11.9467 115.041 12.5867 115.788 13.44C116.534 14.2933 116.921 15.4267 116.948 16.84C116.948 18.0933 116.601 19.2133 115.908 20.2C115.214 21.1867 114.228 21.96 112.948 22.52C111.694 23.08 110.214 23.36 108.508 23.36ZM120.355 11.88C120.355 9.66667 120.808 7.70667 121.715 6C122.648 4.29333 123.902 2.97333 125.475 2.04C127.075 1.08 128.835 0.6 130.755 0.6C132.488 0.6 133.995 0.946666 135.275 1.64C136.582 2.30667 137.622 3.14667 138.395 4.16V0.96H142.995V23H138.395V19.72C137.622 20.76 136.568 21.6267 135.235 22.32C133.902 23.0133 132.382 23.36 130.675 23.36C128.782 23.36 127.048 22.88 125.475 21.92C123.902 20.9333 122.648 19.5733 121.715 17.84C120.808 16.08 120.355 14.0933 120.355 11.88ZM138.395 11.96C138.395 10.44 138.075 9.12 137.435 8C136.822 6.88 136.008 6.02667 134.995 5.44C133.982 4.85333 132.888 4.56 131.715 4.56C130.542 4.56 129.448 4.85333 128.435 5.44C127.422 6 126.595 6.84 125.955 7.96C125.342 9.05333 125.035 10.36 125.035 11.88C125.035 13.4 125.342 14.7333 125.955 15.88C126.595 17.0267 127.422 17.9067 128.435 18.52C129.475 19.1067 130.568 19.4 131.715 19.4C132.888 19.4 133.982 19.1067 134.995 18.52C136.008 17.9333 136.822 17.08 137.435 15.96C138.075 14.8133 138.395 13.48 138.395 11.96Z" fill="#212528"/>
</svg>
